HIERARCHY
ROOT simHips
{
  OFFSET 80.8084 99.7899 46.2635
  CHANNELS 6 Xposition Yposition Zposition Zrotation Xrotation Yrotation
  JOINT simSpine
  {
    OFFSET -0.000355721 21.3001 -0.016921
    CHANNELS 3 Zrotation Xrotation Yrotation
    JOINT simLeftArm
    {
      OFFSET 13.5181 21.3012 0
      CHANNELS 3 Zrotation Xrotation Yrotation
      JOINT simLeftForeArm
      {
        OFFSET 24.5783 0 0
        CHANNELS 3 Zrotation Xrotation Yrotation
        JOINT simLeftHand
        {
          OFFSET 24.5783 0 0
          CHANNELS 3 Zrotation Xrotation Yrotation
          End Site
          {
            OFFSET 7.32568 1.52588e-05 0.0169305
          }
        }
      }
    }
    JOINT simHead
    {
      OFFSET 0 27.4458 -0.00489235
      CHANNELS 3 Zrotation Xrotation Yrotation
      End Site
      {
        OFFSET 0 0 0
      }
    }
    JOINT simRightArm
    {
      OFFSET -13.5174 21.3012 0
      CHANNELS 3 Zrotation Xrotation Yrotation
      JOINT simRightForeArm
      {
        OFFSET -24.5783 0 0
        CHANNELS 3 Zrotation Xrotation Yrotation
        JOINT simRightHand
        {
          OFFSET -24.5783 0 0
          CHANNELS 3 Zrotation Xrotation Yrotation
          End Site
          {
            OFFSET -7.32568 1.52588e-05 0.0169305
          }
        }
      }
    }
  }
  JOINT simRightUpLeg
  {
    OFFSET -8.44614 -9.41038 0.835684
    CHANNELS 3 Zrotation Xrotation Yrotation
    JOINT simRightLeg
    {
      OFFSET 0 -40.9639 0
      CHANNELS 3 Zrotation Xrotation Yrotation
      JOINT simRightFoot
      {
        OFFSET 0 -40.9639 0
        CHANNELS 3 Zrotation Xrotation Yrotation
        End Site
        {
          OFFSET 0.50614 -9.67405 14.6709
        }
      }
    }
  }
  JOINT simLeftUpLeg
  {
    OFFSET 8.44614 -9.41038 0.835684
    CHANNELS 3 Zrotation Xrotation Yrotation
    JOINT simLeftLeg
    {
      OFFSET 0 -40.9639 0
      CHANNELS 3 Zrotation Xrotation Yrotation
      JOINT simLeftFoot
      {
        OFFSET 0 -40.9639 0
        CHANNELS 3 Zrotation Xrotation Yrotation
        End Site
        {
          OFFSET -0.50614 -9.67405 14.6709
        }
      }
    }
  }
}
MOTION
Frames:	21
Frame Time:	0.0333333
80.8084 99.7899 46.2635 1.70755e-06 0 -0 -1.70755e-06 0 -0 -6.83019e-06 -1.70755e-06 -1.53679e-05 6.61509e-06 0.00379056 2.50273e-05 -6.4033e-07 1.11131e-13 -1.00862e-05 -1.70755e-06 0 -0 6.83019e-06 -8.53773e-07 5.12264e-06 -6.83073e-06 -0.00209678 -1.4782e-05 -5.75742e-13 6.83019e-06 8.81891e-06 -1.68762 -0.288836 -0.00365063 -0.0048869 0.0793847 0.00266397 1.68765 0.209458 -0.00285715 0.327093 -0.0744541 -0.00312024 2.80433e-05 2.28138 0.00171481 -0.32744 -2.20691 -0.00757847 
80.791 99.7895 46.206 -0.0114426 -0.0429344 0.0492994 -0.0232114 0.0763847 -0.0722382 -0.0145738 0.0945916 -0.0560058 -0.00230211 0.00379056 0.000100156 -0.0977548 0.131542 0.0479742 0.0119745 0.105333 -0.0621354 -0.0129402 -0.0153863 0.0227172 -0.0124266 -0.00209678 0.0344361 0.0490444 0.153206 0.0134348 -1.66343 -0.254767 -0.0554511 -0.00488511 0.0410132 0.00266397 1.69347 0.26106 -0.00164481 0.341041 0.0250406 -0.0893717 0.022235 2.19977 0.00171472 -0.272428 -2.22474 0.0139418 
80.7801 99.7896 46.1571 -0.0164282 -0.0356615 0.0553399 -0.0563007 0.0655934 -0.10154 -0.031144 0.291687 -0.0489984 0.0131965 0.00379056 -0.0437901 -0.151934 -0.000816391 0.0716114 0.049862 0.230898 -0.10249 0.00221549 0.0476773 0.0432017 -0.0130838 -0.00209678 0.0363413 0.0344905 0.242933 0.0886177 -1.65016 -0.314773 -0.0238102 -0.00374854 0.0843074 0.00266397 1.73032 0.278948 -0.0447842 0.3495 0.129931 -0.163872 0.0303807 2.0386 0.00171454 -0.312128 -2.19021 0.0945968 
80.7726 99.7895 46.1098 -0.0291402 -0.0402794 0.0604899 -0.0716996 0.10252 -0.118691 -0.0559603 0.229277 -0.117545 -0.00965304 -0.00276439 -1.31486e-05 -0.143441 0.0883749 0.13537 0.0782495 0.294391 -0.119925 0.00801361 0.0360416 0.0485789 0.00155319 -0.00209678 1.77435e-05 -0.00535527 0.206042 0.0488109 -1.63463 -0.28288 -0.0663012 0.0093499 -0.0363569 0.00266397 1.71747 0.378217 -0.017988 0.369386 0.0564056 -0.0583563 0.0303219 2.08389 0.00171459 -0.26193 -2.18038 -0.0263354 
80.7552 99.7896 46.0776 -0.0438731 -0.0330304 0.0613839 -0.102523 0.115156 -0.129968 -0.0334895 0.288051 -0.143627 -0.0281006 -0.00801856 -0.000125464 -0.211054 0.102942 0.064327 0.156065 0.331397 -0.153235 0.0344098 0.0487111 0.00966716 -0.0143134 -0.00209678 0.040326 -0.0363818 0.186915 -0.111382 -1.60711 -0.322275 -0.0700357 0.00734693 -0.0247221 0.00266397 1.6627 0.383708 -0.000239386 0.401722 -0.0102299 -0.114549 0.0126711 2.11967 0.00171463 -0.323839 -2.18824 0.0417845 
80.7558 99.7897 46.0477 -0.0482481 -0.0146982 0.055986 -0.124452 0.119844 -0.153126 -0.000687378 0.331057 -0.12498 -0.0328799 -0.0103481 -0.000167029 -0.27657 0.0760897 0.0308023 0.163174 0.376834 -0.14395 0.0311564 0.0134409 -0.033142 -0.0148421 -0.00209678 0.042141 0.00688901 0.211417 0.0048281 -1.5962 -0.41012 -0.0934959 -0.00388682 0.0701492 0.00266397 1.63914 0.341261 0.0186191 0.403141 0.0567594 -0.344601 0.0308314 1.99868 0.0017145 -0.325942 -2.15564 0.261267 
80.7552 99.7898 46.0332 -0.0503867 -0.00320686 0.0467905 -0.14601 0.113175 -0.167693 0.0333539 0.37245 -0.103552 -0.0336299 -0.0118158 -0.000184343 -0.285323 0.14454 0.0624096 0.164568 0.405181 -0.141048 0.0267212 0.0351019 -0.0830872 -0.0363892 -0.00209678 0.102067 0.0206433 0.239043 0.0642524 -1.59017 -0.396876 -0.0891007 -0.00699962 3.3916e-05 0.00266397 1.67995 0.379859 0.0304165 0.413807 -0.0854232 -0.319472 0.0143581 2.13697 0.00171465 -0.317705 -2.16883 0.245107 
80.7537 99.7902 46.0213 -0.0516937 0.0361644 0.0365376 -0.170442 0.0962954 -0.190849 0.076996 0.35077 -0.0788507 -0.032484 -0.0125674 -0.000183467 -0.239084 0.0726504 0.0602609 0.144352 0.386947 -0.0962897 0.0291856 -0.0043034 -0.0852294 -0.0419718 -0.00209678 0.118737 0.0249608 0.165767 -0.129646 -1.59185 -0.445429 -0.071889 -0.00654569 -0.00411234 0.00266397 1.7063 0.382305 0.0163579 0.426067 -0.289101 -0.463962 -0.00540719 2.32361 0.00171487 -0.328426 -2.18152 0.382165 
80.7697 99.7901 46.0251 -0.0529773 0.030109 0.0107501 -0.177536 0.107642 -0.183248 0.103915 0.310559 -0.0579176 -0.0301562 -0.0127485 -0.000170459 -0.250685 0.110643 0.0631902 0.104721 0.389496 -0.0191553 -0.0310106 0.0630913 -0.108798 -0.022199 -0.00209678 0.0645838 0.0095008 0.21541 -0.0356012 -1.59094 -0.437694 -0.0928218 -0.00425091 -0.00784379 0.00266397 1.66753 0.399847 0.0613371 0.408704 -0.258178 -0.490867 0.0122487 2.27619 0.00171481 -0.363591 -2.1728 0.43006 
80.7694 99.79 46.0336 -0.0541784 0.0317891 -0.00932388 -0.188324 0.0984347 -0.184878 0.14774 0.430687 -0.00860982 -0.0257026 -0.0125049 -0.000151377 -0.268924 0.10447 0.0637804 0.10678 0.367784 0.114808 -0.0741861 0.098466 -0.139296 -0.0172778 -0.00209678 0.0512201 0.0618039 0.206102 0.0639743 -1.57967 -0.442753 -0.104709 -0.00119311 -0.00332713 0.00266397 1.69251 0.417429 0.078733 0.425423 -0.152494 -0.136512 0.0134837 2.16833 0.00171468 -0.30802 -2.13713 0.131891 
80.7861 99.7902 46.057 -0.0551822 0.0580986 -0.0148676 -0.215774 0.0652091 -0.167513 0.189043 0.40733 -0.0476726 -0.0523508 -0.0119822 -0.00013228 -0.384189 0.263441 0.0522758 0.12142 0.353901 0.225222 -0.10148 0.103504 -0.199949 -0.0121882 -0.00209678 0.0372752 0.0716174 0.188431 0.0333711 -1.60439 -0.483685 -0.0819447 0.00154779 0.062742 0.00266397 1.74601 0.330727 0.0699439 0.408611 -0.134737 -0.264498 -0.00589952 2.15751 0.00171467 -0.281022 -2.18728 0.238161 
80.7938 99.7904 46.0856 -0.0559121 0.0884072 0.00535142 -0.221101 0.00653513 -0.174964 0.194505 0.33942 -0.0496915 -0.0341899 -0.0113262 -0.000119227 -0.406458 0.249462 0.0815568 0.152047 0.396658 0.315449 -0.103586 0.0601956 -0.235331 -0.0143053 -0.00209678 0.0431354 0.0385256 0.346414 0.0048647 -1.59452 -0.478227 -0.110078 0.00290223 0.0201893 0.00266397 1.74269 0.387614 0.0612601 0.411365 -0.130709 -0.100452 0.0160223 2.10411 0.00171461 -0.283851 -2.1268 0.0796359 
80.8024 99.7905 46.1165 -0.0562083 0.0936784 0.00854948 -0.250159 -0.0369664 -0.182823 0.236331 0.397044 -0.0240588 -0.0260849 -0.0106826 -0.000118277 -0.177755 0.434919 0.112911 0.15273 0.45203 0.376518 -0.0901042 0.0477637 -0.229131 -0.0317953 -0.00209678 0.0903424 0.0285518 0.298269 0.00769993 -1.61254 -0.509209 -0.119657 0.00178181 0.104922 0.00266397 1.72066 0.319273 0.0850855 0.41157 -0.232588 -0.127345 -0.00609955 2.22738 0.00171475 -0.315733 -2.17274 0.0765834 
80.8146 99.7907 46.1513 -0.0560147 0.120947 0.0260859 -0.263567 -0.127347 -0.192076 0.213906 0.421689 -0.0157796 -0.00485187 -0.0101969 -0.000133415 -0.411787 0.105171 0.0882733 0.102556 0.487336 0.389007 -0.0622504 0.045625 -0.231941 -0.0550717 -0.00209678 0.153767 0.0404862 0.193979 -0.0665396 -1.62305 -0.496531 -0.133033 -0.00510211 0.0772527 0.00310924 1.70273 0.306444 0.0742282 0.383277 -0.221175 -0.268097 0.013756 2.20912 0.00171473 -0.330226 -2.15523 0.22906 
80.8221 99.7855 46.1869 -0.0552237 0.101028 0.0752443 -0.285423 -0.153205 -0.23726 0.176814 0.498245 0.015856 0.0199025 -0.010015 -0.0656325 -0.416056 0.268503 0.21609 0.0835431 0.548867 0.443682 -0.0968278 0.14926 -0.191879 -0.0464411 -0.00209678 0.12985 0.124289 0.155341 0.0490611 -1.63607 -0.402896 -0.152768 0.00145478 -0.00538417 0.00237421 1.71748 0.340544 0.0297334 0.360472 -0.0462867 -0.148503 0.0309946 2.07735 0.00171458 -0.348716 -2.18027 0.0694104 
80.8301 99.7775 46.22 -0.0536249 0.0802437 0.103921 -0.285786 -0.173999 -0.217204 0.100823 0.525706 -0.00249454 0.0200038 -0.0102825 -0.0665639 -0.271811 0.484379 0.128231 0.0449623 0.554522 0.466825 -0.0811863 0.171948 -0.212309 -0.0511128 -0.00209678 0.141213 0.094813 0.220606 0.0550374 -1.6418 -0.397326 -0.12364 0.0101934 0.0687031 0.00116071 1.66621 0.260289 -0.0194608 0.363784 -0.147819 -0.116322 0.0116494 2.2296 0.00171475 -0.318604 -2.20407 0.014819 
80.8269 99.7747 46.2526 -0.0493398 0.0878604 0.158283 -0.305809 -0.219898 -0.236966 0.0322666 0.444779 -0.0388621 0.00655711 -0.0111452 -0.0225175 -0.352043 0.404397 0.0946628 0.0750293 0.560266 0.485385 -0.0360807 0.167831 -0.186465 -0.0494122 -0.00209678 0.136065 0.0553333 0.164211 -0.0718326 -1.65449 -0.389776 -0.140545 0.0165078 0.109384 -0.000377653 1.66529 0.200551 -0.0438453 0.348689 -0.106309 -0.121549 0.0315764 2.18263 0.0017147 -0.324368 -2.23219 -0.0381812 
80.8266 99.7744 46.2848 -0.0727422 0.0536041 0.227543 -0.309513 -0.199127 -0.260622 -0.00156409 0.453549 -0.0379828 -0.00863698 -0.0127486 -0.000111048 -0.473852 0.569116 0.0791719 0.0767004 0.570437 0.431662 -0.0017778 0.149943 -0.189071 -0.041548 -0.00209678 0.113315 0.0764488 0.272212 0.0579194 -1.62108 -0.304925 -0.196275 0.0202873 0.0728243 -0.00208728 1.63388 0.205567 -0.0619131 0.398533 0.0538279 -0.15371 0.00129058 2.07748 0.00171458 -0.325354 -2.24833 -0.0613457 
80.8215 99.7748 46.31 -0.0612827 0.0980515 0.24186 -0.352111 -0.255855 -0.259168 -0.0391479 0.467992 -0.00324927 -0.0187895 -0.0164296 7.43374e-06 -0.42913 0.602149 0.112003 0.0669694 0.566568 0.34725 0.050616 0.224989 -0.193792 -0.0754314 -0.00209677 0.205407 0.133086 0.215014 -0.0598297 -1.63174 -0.349251 -0.221403 0.0198486 0.100961 -0.00381458 1.62865 0.192156 -0.0648816 0.382199 -0.0141358 -0.0417588 0.0151197 2.09937 0.00171461 -0.37146 -2.2428 -0.195123 
80.8195 99.7749 46.3418 -0.0586287 0.0968594 0.233531 -0.380839 -0.261601 -0.223895 -0.0828681 0.461213 0.0526208 -0.0058357 -0.0182892 6.38467e-05 -0.603301 0.405577 0.098947 0.103361 0.542976 0.290959 0.101223 0.217049 -0.197928 -0.0646757 -0.00209677 0.175332 0.106759 0.402281 0.0767419 -1.61999 -0.297664 -0.24709 0.00927581 0.0337157 -0.00540592 1.64159 0.227634 -0.056218 0.382102 -0.0347904 -0.179893 0.0306926 2.1444 0.00171466 -0.349337 -2.23961 -0.0497739 
80.822 99.7753 46.3556 -0.0597483 0.147316 0.198867 -0.394456 -0.311107 -0.176881 -0.136381 0.462125 0.105397 -0.00635023 -0.0195294 0.000107019 -0.508171 0.532404 0.144516 0.128355 0.575416 0.325782 0.118507 0.319402 -0.198204 -0.0553135 -0.00209678 0.149072 0.155206 0.289366 0.18793 -1.62141 -0.390448 -0.217035 0.020018 0.122001 -0.00670775 1.59089 0.169182 -0.0319994 0.402036 0.00731487 -0.14756 -0.0103591 2.09654 0.0017146 -0.331875 -2.28266 -0.0359458 
